<svg xmlns="http://www.w3.org/2000/svg" version="1.1" xmlns:xlink="http://www.w3.org/1999/xlink" xmlns:svgjs="http://svgjs.com/svgjs" width="1440" height="560" preserveAspectRatio="none" viewBox="0 0 1440 560">
    <g mask="url(&quot;#SvgjsMask1009&quot;)" fill="none">
        <path d="M427 108L426 525" stroke-width="6" stroke="url(#SvgjsLinearGradient1010)" stroke-linecap="round" class="Down"></path>
        <path d="M398 301L397 -10" stroke-width="10" stroke="url(#SvgjsLinearGradient1010)" stroke-linecap="round" class="Down"></path>
        <path d="M935 249L934 -31" stroke-width="6" stroke="url(#SvgjsLinearGradient1011)" stroke-linecap="round" class="Up"></path>
        <path d="M825 366L824 712" stroke-width="6" stroke="url(#SvgjsLinearGradient1012)" stroke-linecap="round" class="Down"></path>
        <path d="M1109 148L1108 306" stroke-width="6" stroke="url(#SvgjsLinearGradient1011)" stroke-linecap="round" class="Up"></path>
        <path d="M937 500L936 698" stroke-width="6" stroke="url(#SvgjsLinearGradient1010)" stroke-linecap="round" class="Down"></path>
        <path d="M84 11L83 -162" stroke-width="10" stroke="url(#SvgjsLinearGradient1010)" stroke-linecap="round" class="Down"></path>
        <path d="M901 296L900 578" stroke-width="8" stroke="url(#SvgjsLinearGradient1010)" stroke-linecap="round" class="Down"></path>
        <path d="M1402 540L1401 218" stroke-width="6" stroke="url(#SvgjsLinearGradient1011)" stroke-linecap="round" class="Up"></path>
        <path d="M353 510L352 323" stroke-width="8" stroke="url(#SvgjsLinearGradient1011)" stroke-linecap="round" class="Up"></path>
        <path d="M302 450L301 31" stroke-width="8" stroke="url(#SvgjsLinearGradient1012)" stroke-linecap="round" class="Down"></path>
        <path d="M196 514L195 832" stroke-width="6" stroke="url(#SvgjsLinearGradient1011)" stroke-linecap="round" class="Up"></path>
        <path d="M1135 38L1134 -287" stroke-width="6" stroke="url(#SvgjsLinearGradient1011)" stroke-linecap="round" class="Up"></path>
        <path d="M24 538L23 357" stroke-width="8" stroke="url(#SvgjsLinearGradient1013)" stroke-linecap="round" class="Up"></path>
        <path d="M1026 447L1025 167" stroke-width="10" stroke="url(#SvgjsLinearGradient1011)" stroke-linecap="round" class="Up"></path>
        <path d="M849 71L848 319" stroke-width="6" stroke="url(#SvgjsLinearGradient1012)" stroke-linecap="round" class="Down"></path>
        <path d="M767 52L766 284" stroke-width="6" stroke="url(#SvgjsLinearGradient1012)" stroke-linecap="round" class="Down"></path>
        <path d="M568 14L567 -262" stroke-width="8" stroke="url(#SvgjsLinearGradient1010)" stroke-linecap="round" class="Down"></path>
        <path d="M685 383L684 797" stroke-width="6" stroke="url(#SvgjsLinearGradient1013)" stroke-linecap="round" class="Up"></path>
        <path d="M869 238L868 647" stroke-width="10" stroke="url(#SvgjsLinearGradient1011)" stroke-linecap="round" class="Up"></path>
        <path d="M693 441L692 235" stroke-width="8" stroke="url(#SvgjsLinearGradient1012)" stroke-linecap="round" class="Down"></path>
        <path d="M577 201L576 552" stroke-width="10" stroke="url(#SvgjsLinearGradient1011)" stroke-linecap="round" class="Up"></path>
        <path d="M798 472L797 735" stroke-width="10" stroke="url(#SvgjsLinearGradient1013)" stroke-linecap="round" class="Up"></path>
        <path d="M711 44L710 402" stroke-width="10" stroke="url(#SvgjsLinearGradient1013)" stroke-linecap="round" class="Up"></path>
        <path d="M656 1L655 325" stroke-width="8" stroke="url(#SvgjsLinearGradient1012)" stroke-linecap="round" class="Down"></path>
        <path d="M1104 214L1103 8" stroke-width="10" stroke="url(#SvgjsLinearGradient1013)" stroke-linecap="round" class="Up"></path>
        <path d="M1350 486L1349 200" stroke-width="8" stroke="url(#SvgjsLinearGradient1013)" stroke-linecap="round" class="Up"></path>
        <path d="M1314 404L1313 32" stroke-width="6" stroke="url(#SvgjsLinearGradient1010)" stroke-linecap="round" class="Down"></path>
        <path d="M1276 54L1275 -289" stroke-width="6" stroke="url(#SvgjsLinearGradient1012)" stroke-linecap="round" class="Down"></path>
        <path d="M159 184L158 513" stroke-width="6" stroke="url(#SvgjsLinearGradient1010)" stroke-linecap="round" class="Down"></path>
        <path d="M412 94L411 483" stroke-width="10" stroke="url(#SvgjsLinearGradient1011)" stroke-linecap="round" class="Up"></path>
        <path d="M494 528L493 937" stroke-width="6" stroke="url(#SvgjsLinearGradient1013)" stroke-linecap="round" class="Up"></path>
        <path d="M554 20L553 277" stroke-width="8" stroke="url(#SvgjsLinearGradient1010)" stroke-linecap="round" class="Down"></path>
        <path d="M1328 405L1327 174" stroke-width="10" stroke="url(#SvgjsLinearGradient1011)" stroke-linecap="round" class="Up"></path>
        <path d="M9 31L8 -277" stroke-width="6" stroke="url(#SvgjsLinearGradient1012)" stroke-linecap="round" class="Down"></path>
        <path d="M952 419L951 633" stroke-width="10" stroke="url(#SvgjsLinearGradient1011)" stroke-linecap="round" class="Up"></path>
    </g>
    <defs>
        <mask id="SvgjsMask1009">
            <rect width="1440" height="560" fill="#ffffff"></rect>
        </mask>
        <linearGradient x1="0%" y1="0%" x2="0%" y2="100%" id="SvgjsLinearGradient1010">
            <stop stop-color="rgba(57, 255, 20, 0)" offset="0"></stop>
            <stop stop-color="rgba(57, 255, 20, 0.28)" offset="1"></stop>
        </linearGradient>
        <linearGradient x1="0%" y1="100%" x2="0%" y2="0%" id="SvgjsLinearGradient1011">
            <stop stop-color="rgba(255, 255, 255, 0)" offset="0"></stop>
            <stop stop-color="rgba(255, 255, 255, 0.24)" offset="1"></stop>
        </linearGradient>
        <linearGradient x1="0%" y1="0%" x2="0%" y2="100%" id="SvgjsLinearGradient1012">
            <stop stop-color="rgba(255, 255, 255, 0)" offset="0"></stop>
            <stop stop-color="rgba(255, 255, 255, 0.24)" offset="1"></stop>
        </linearGradient>
        <linearGradient x1="0%" y1="100%" x2="0%" y2="0%" id="SvgjsLinearGradient1013">
            <stop stop-color="rgba(57, 255, 20, 0)" offset="0"></stop>
            <stop stop-color="rgba(57, 255, 20, 0.28)" offset="1"></stop>
        </linearGradient>
    </defs>
</svg>